<?xml version="1.0" standalone="no"?>
<!DOCTYPE svg PUBLIC "-//W3C//DTD SVG 20010904//EN"
 "http://www.w3.org/TR/2001/REC-SVG-20010904/DTD/svg10.dtd">
<svg version="1.0" xmlns="http://www.w3.org/2000/svg"
 width="477.000000pt" height="417.000000pt" viewBox="0 0 477.000000 417.000000"
 preserveAspectRatio="xMidYMid meet">

<g transform="translate(0.000000,417.000000) scale(0.100000,-0.100000)"
fill="#000000" stroke="none">
<path d="M11 3227 c-1 -7 -5 -610 -8 -1342 -5 -1490 -8 -1409 67 -1562 67
-135 187 -240 340 -295 l65 -23 1910 0 1910 0 65 23 c153 55 273 160 340 295
75 153 72 74 68 1552 -2 726 -7 1328 -12 1337 -4 9 -14 14 -22 11 -8 -3 -14 1
-14 8 0 11 -2 11 -8 1 -11 -16 -45 -23 -62 -12 -8 5 -22 4 -33 -2 -11 -6 -17
-6 -14 0 7 10 -125 8 -142 -2 -5 -4 -13 0 -18 7 -5 9 -20 12 -45 9 -22 -2 -35
-8 -32 -14 4 -6 -3 -5 -15 1 -20 11 -21 10 -21 -50 0 -79 -28 -140 -78 -171
-35 -22 -46 -23 -227 -23 -183 0 -191 1 -229 24 -51 32 -75 87 -76 169 l0 62
-54 -2 c-30 -2 -52 -6 -49 -10 2 -5 -7 -7 -21 -6 -15 1 -26 5 -26 9 0 4 -7 9
-15 13 -8 3 -14 0 -12 -6 1 -6 -4 -13 -12 -16 -8 -2 -11 0 -7 6 3 5 -1 12 -9
16 -8 3 -14 0 -12 -6 1 -6 -4 -13 -12 -16 -8 -3 -11 0 -7 6 5 8 -8 11 -39 9
-25 -1 -45 -6 -45 -12 0 -5 -7 -2 -14 8 -8 10 -17 14 -20 9 -3 -5 -21 -8 -40
-7 -31 3 -34 0 -40 -27 -3 -17 -6 -155 -6 -307 l0 -276 -28 -60 c-31 -64 -77
-111 -145 -147 l-42 -23 -680 0 -680 0 -42 23 c-68 36 -114 83 -145 147 l-28
60 0 285 c0 157 -3 296 -7 308 -5 20 -10 23 -35 18 -21 -4 -27 -2 -22 7 5 6 0
5 -11 -3 -14 -11 -19 -12 -22 -2 -3 6 -12 12 -21 12 -13 0 -14 -2 -3 -9 24
-15 -3 -19 -51 -6 -37 9 -48 9 -48 0 0 -6 -7 -12 -15 -12 -8 0 -15 5 -15 10 0
5 -7 4 -15 -3 -10 -8 -15 -9 -15 -1 0 7 -8 8 -25 1 -18 -7 -25 -6 -25 2 0 6
-3 9 -6 5 -3 -3 -17 -2 -30 3 -14 6 -26 6 -29 -1 -4 -5 -11 -7 -16 -4 -5 4 -9
1 -9 -5 0 -6 -5 -8 -10 -5 -6 4 -10 -16 -10 -52 0 -75 -31 -139 -80 -168 -32
-18 -52 -20 -225 -20 -181 0 -192 1 -227 23 -51 31 -78 91 -78 171 0 58 -2 63
-20 58 -10 -3 -21 0 -24 7 -3 8 -7 8 -13 0 -4 -7 -19 -11 -33 -10 -14 1 -31
-2 -38 -8 -9 -6 -12 -6 -10 3 2 8 -8 15 -22 17 -24 4 -24 4 -5 -10 19 -14 18
-15 -10 -8 -34 9 -67 8 -83 -2 -6 -3 -15 2 -21 11 -10 17 -10 17 -11 0 0 -10
-5 -15 -10 -12 -6 4 -7 12 -3 18 5 8 2 8 -9 -1 -8 -7 -24 -9 -33 -5 -14 5 -16
3 -10 -8 7 -12 6 -12 -7 -1 -13 10 -17 10 -21 0 -4 -10 -6 -10 -6 1 -1 11 -4
11 -18 0 -10 -8 -14 -9 -10 -2 4 6 4 14 -1 17 -5 3 -10 0 -11 -7z m949 -859
c33 -17 51 -35 68 -68 22 -43 23 -54 20 -225 -3 -165 -5 -183 -25 -215 -43
-69 -64 -75 -278 -75 -214 0 -235 6 -278 75 -21 33 -22 47 -22 225 0 183 1
191 24 229 41 65 78 76 276 76 157 0 174 -2 215 -22z m3276 3 c25 -12 50 -33
65 -57 23 -38 24 -46 24 -229 0 -178 -1 -192 -22 -225 -43 -69 -64 -75 -278
-75 -214 0 -235 6 -278 75 -20 32 -22 50 -25 215 -3 171 -2 182 20 225 17 33
35 51 68 68 41 20 58 22 215 22 144 0 176 -3 211 -19z m-1124 -614 c61 -30
105 -74 140 -140 22 -41 23 -50 26 -406 2 -309 1 -371 -13 -410 -34 -101 -107
-169 -211 -196 -86 -22 -1252 -22 -1338 0 -102 27 -175 94 -211 194 -12 36
-15 103 -15 390 0 195 4 361 10 381 25 91 100 169 193 202 48 16 98 17 707 15
l655 -2 57 -28z m-2159 -578 c35 -18 68 -52 79 -79 5 -14 9 -110 8 -215 -1
-218 -6 -235 -80 -272 -41 -21 -58 -23 -215 -23 -195 0 -236 11 -273 72 -21
33 -22 48 -22 229 0 176 2 197 20 227 40 66 63 72 273 72 120 0 196 -4 210
-11z m3295 -9 c66 -41 72 -62 72 -279 0 -181 -1 -196 -22 -229 -37 -61 -78
-72 -273 -72 -157 0 -174 2 -215 23 -74 37 -79 54 -81 272 -1 199 3 226 42
261 46 41 59 43 254 44 172 0 193 -2 223 -20z"/>
</g>
</svg>
